<svg xmlns="http://www.w3.org/2000/svg" width="196" height="30.291" viewBox="0 0 196 30.291">
  <path id="logo" d="M574.5,49.4a3.5,3.5,0,0,1-3.855-3.843V29.415a1.639,1.639,0,0,1,3.278,0V45.863a.583.583,0,0,0,.577.54,1.5,1.5,0,1,1,0,3Zm-8.68-15.728a1.755,1.755,0,0,1-1.943-1.894,1.958,1.958,0,1,1,3.916,0,1.763,1.763,0,0,1-1.971,1.894Zm-9.53,13.117a4.861,4.861,0,0,0,3.006-1.2,1.457,1.457,0,0,1,1.853,2.25,7.328,7.328,0,0,1-4.857,1.71c-4.128,0-6.586-2.342-6.586-7.233s2.462-7.2,6.586-7.2a6.289,6.289,0,0,1,4.948,2.071,1.406,1.406,0,0,1,.333.931,1.431,1.431,0,0,1-1.456,1.441,1.471,1.471,0,0,1-1.123-.51,3.48,3.48,0,0,0-2.7-1.17c-2.124,0-3.277,1.621-3.277,4.443C553.011,45.2,554.165,46.794,556.289,46.794Zm-10.441,2.612a1.61,1.61,0,0,1-1.61-1.591c-.819,1.292-2.155,1.742-3.977,1.742-2.974,0-4.947-1.831-4.947-4.532,0-2.792,2.273-4.232,4.917-4.232h3.977v-.54c0-1.35-1-2.252-2.762-2.252a5.046,5.046,0,0,0-3.035,1.136,1.447,1.447,0,0,1-.911.3,1.42,1.42,0,0,1-1.426-1.411,1.472,1.472,0,0,1,.395-.99,6.4,6.4,0,0,1,4.977-1.921c3.764,0,6.01,1.83,6.01,5.013v7.682a1.61,1.61,0,0,1-1.608,1.593Zm-1.639-6.093h-3.551c-1.335,0-2.064.63-2.064,1.711,0,1.136.82,1.831,2.52,1.831a2.856,2.856,0,0,0,3.1-2.7v-.841Zm-2.792-9.574a.947.947,0,0,1-1.4,0,.912.912,0,0,1-.152-1.351l2.58-3.241a1.186,1.186,0,0,1,1.821.095,1.16,1.16,0,0,1,.121,1.8Zm-8.256-2.311c-1.669,0-2.519.931-2.519,2.251v1.861h2.033a1.35,1.35,0,1,1,0,2.7h-2.033v9.606A1.574,1.574,0,0,1,529,49.4a1.539,1.539,0,0,1-1.639-1.561v-9.6h-.637a1.35,1.35,0,1,1,0-2.7h.637V33.917c0-2.792,1.882-5.312,5.8-5.312a1.411,1.411,0,1,1,0,2.821Zm-10.411,6.813h-1.366V45.5a1.113,1.113,0,0,0,1.153,1.08,1.411,1.411,0,0,1,0,2.822c-2.7,0-4.37-1.711-4.37-4.082V38.239h-.7a1.35,1.35,0,1,1,0-2.7h.7V33.017a1.61,1.61,0,1,1,3.22,0v2.522h1.366a1.35,1.35,0,1,1,0,2.7ZM509.208,49.494a7.272,7.272,0,0,1-5.373-2.1,1.385,1.385,0,0,1-.364-.93,1.469,1.469,0,0,1,1.456-1.441,1.435,1.435,0,0,1,.941.36,5.019,5.019,0,0,0,3.339,1.231c1.365,0,2.245-.359,2.245-1.2,0-2.432-7.435-1.17-7.435-6.274,0-2.7,2.273-4.022,5.068-4.022A6.562,6.562,0,0,1,514,36.978a1.288,1.288,0,0,1,.3.9,1.468,1.468,0,0,1-1.456,1.44,1.663,1.663,0,0,1-1.032-.419,4.417,4.417,0,0,0-2.732-.961c-1.123,0-1.791.39-1.791,1.136,0,2.221,7.467,1.2,7.467,6.155,0,2.824-2.424,4.267-5.55,4.267ZM499.525,33.68a1.755,1.755,0,0,1-1.942-1.894,1.958,1.958,0,1,1,3.916,0,1.764,1.764,0,0,1-1.97,1.89Zm-5.16,15.728a3.5,3.5,0,0,1-3.855-3.843V29.415a1.639,1.639,0,0,1,3.278,0V45.863a.584.584,0,0,0,.577.54,1.5,1.5,0,1,1,0,3Zm-5.98-1.561a1.587,1.587,0,0,1-2.853.93l-4.523-6-.971.75v4.319A1.574,1.574,0,0,1,478.4,49.4a1.556,1.556,0,0,1-1.639-1.561V29.355a1.556,1.556,0,0,1,1.639-1.561,1.574,1.574,0,0,1,1.639,1.561v10.6l5.492-4.261a1.609,1.609,0,0,1,1.062-.39,1.558,1.558,0,0,1,.972,2.792l-3.977,3,4.462,5.792a1.6,1.6,0,0,1,.339.957ZM469.172,46.8a4.855,4.855,0,0,0,3-1.2,1.457,1.457,0,0,1,1.853,2.247,7.331,7.331,0,0,1-4.857,1.71c-4.128,0-6.586-2.342-6.586-7.233s2.462-7.2,6.586-7.2a6.289,6.289,0,0,1,4.948,2.071,1.406,1.406,0,0,1,.333.931A1.431,1.431,0,0,1,473,39.56a1.472,1.472,0,0,1-1.123-.51,3.48,3.48,0,0,0-2.7-1.17c-2.124,0-3.277,1.621-3.277,4.443,0,2.88,1.156,4.471,3.28,4.471Zm-10.077-3.3h-7.5c0,2.162,1.548,3.152,3.551,3.152a5.234,5.234,0,0,0,3-.931,1.647,1.647,0,0,1,.971-.33,1.42,1.42,0,0,1,1.426,1.411,1.493,1.493,0,0,1-.515,1.11,7.19,7.19,0,0,1-4.887,1.651c-4.219,0-6.829-2.251-6.829-7.264,0-4.593,2.429-7.173,6.557-7.173,5.129,0,6.07,3.9,6.07,5.973,0,1.108,0,2.4-1.847,2.4Zm-4.219-5.612a2.951,2.951,0,0,0-3.187,2.912H457.7a2.7,2.7,0,0,0-2.818-2.916ZM444.408,49.4a1.539,1.539,0,0,1-1.639-1.561v-6.9c0-1.711-.7-2.882-2.671-2.882-2.273,0-3.03,1.326-3.03,3.092v6.694a1.641,1.641,0,0,1-3.278,0V29.415a1.639,1.639,0,1,1,3.278,0v7.5a4.514,4.514,0,0,1,3.882-1.8c4.128,0,5.1,2.612,5.1,5.222v7.5a1.574,1.574,0,0,1-1.64,1.561Zm-18.06-2.612a4.858,4.858,0,0,0,3-1.2,1.457,1.457,0,1,1,1.851,2.251,7.326,7.326,0,0,1-4.856,1.71c-4.128,0-6.587-2.342-6.587-7.233s2.462-7.2,6.587-7.2a6.286,6.286,0,0,1,4.947,2.071,1.4,1.4,0,0,1,.334.931,1.431,1.431,0,0,1-1.457,1.441,1.473,1.473,0,0,1-1.123-.51,3.477,3.477,0,0,0-2.7-1.17c-2.125,0-3.278,1.621-3.278,4.443,0,2.88,1.151,4.471,3.278,4.471ZM380,41.8V24h17.8a12.431,12.431,0,0,1,8.3,3.167L395.8,37.708l-3.151-3.255a2.663,2.663,0,0,0-3.833.164,2.818,2.818,0,0,0-.16,3.924l5.238,5.4a2.841,2.841,0,0,0,3.806,0l11.721-11.995a12.382,12.382,0,0,1,.871,4.545v17.8h-17.8A12.489,12.489,0,0,1,380,41.8Zm119.529-6.5a1.624,1.624,0,0,1,1.639,1.621V47.783a1.639,1.639,0,0,1-3.277,0V36.918a1.624,1.624,0,0,1,1.638-1.621Zm66.292,0a1.624,1.624,0,0,1,1.638,1.621V47.783a1.639,1.639,0,0,1-3.277,0V36.918A1.624,1.624,0,0,1,565.82,35.3Z" transform="translate(-380 -24)" fill="#15b35a" fill-rule="evenodd"/>
</svg>
